<svg width="202" height="92" viewBox="0 0 202 92" fill="none" xmlns="http://www.w3.org/2000/svg">
<path d="M26.928 43C26.128 43 25.328 42.6 24.528 41.8C23.76 40.968 23.056 39.944 22.416 38.728C21.808 37.512 21.088 36.2 20.256 34.792C19.424 33.352 18.592 32.008 17.76 30.76C16.928 29.512 15.872 28.456 14.592 27.592C13.312 26.728 11.952 26.264 10.512 26.2V32.152C10.512 35.608 10.608 37.96 10.8 39.208C11.024 40.424 11.328 41.192 11.712 41.512C12.48 42.12 13.664 42.424 15.264 42.424L15.36 43H2.496L2.592 42.424C4.16 42.424 5.312 42.136 6.048 41.56C6.656 41.08 7.008 39.512 7.104 36.856C7.168 35.8 7.2 34.232 7.2 32.152V20.008C7.2 16.456 7.104 14.104 6.912 12.952C6.72 11.8 6.432 11.08 6.048 10.792C5.312 10.248 4.16 9.976 2.592 9.976L2.496 9.4H13.632C21.696 9.4 25.728 12.12 25.728 17.56C25.728 19.896 24.896 21.864 23.232 23.464C21.6 25.032 19.616 25.944 17.28 26.2C19.616 27.576 21.776 30.104 23.76 33.784C24.528 35.224 25.344 36.6 26.208 37.912C28.096 40.92 30.528 42.424 33.504 42.424L33.6 43H26.928ZM10.512 10.504V25.24H13.536C15.968 25.24 17.984 24.616 19.584 23.368C21.184 22.12 21.984 20.264 21.984 17.8C21.984 12.936 19.2 10.504 13.632 10.504H10.512ZM33.1388 31.672C33.1388 28.312 34.0988 25.496 36.0188 23.224C37.9388 20.952 40.5468 19.816 43.8428 19.816C47.1388 19.816 49.7948 20.952 51.8108 23.224C53.8268 25.496 54.8348 28.312 54.8348 31.672C54.8348 35.032 53.8588 37.848 51.9068 40.12C49.9868 42.36 47.3788 43.48 44.0828 43.48C40.7868 43.48 38.1308 42.344 36.1148 40.072C34.1308 37.8 33.1388 35 33.1388 31.672ZM38.6588 39.448C39.9388 41.496 41.7468 42.52 44.0828 42.52C46.4188 42.52 48.1788 41.512 49.3628 39.496C50.5788 37.48 51.1868 34.888 51.1868 31.72C51.1868 28.52 50.5468 25.896 49.2668 23.848C47.9868 21.8 46.1788 20.776 43.8428 20.776C41.5388 20.776 39.7788 21.8 38.5628 23.848C37.3788 25.864 36.7868 28.456 36.7868 31.624C36.7868 34.792 37.4108 37.4 38.6588 39.448ZM80.4296 28.408C80.7176 26.104 81.4536 24.104 82.6376 22.408C83.8536 20.68 85.5336 19.816 87.6776 19.816C89.8216 19.816 91.4856 20.472 92.6696 21.784C93.8536 23.096 94.4456 25 94.4456 27.496V35.08C94.4456 38.408 94.6536 40.472 95.0696 41.272C95.5176 42.04 96.6696 42.424 98.5256 42.424L98.6216 43H87.2936L87.3896 42.424C89.1496 42.424 90.2056 42.024 90.5576 41.224C90.9096 40.424 91.0856 38.232 91.0856 34.648V27.976C91.0856 25.768 90.7656 24.104 90.1256 22.984C89.5176 21.864 88.5256 21.304 87.1496 21.304C85.7736 21.304 84.6376 21.816 83.7416 22.84C82.8456 23.832 82.1736 25.096 81.7256 26.632C80.8616 29.608 80.4296 32.6 80.4296 35.608C80.4296 38.616 80.6216 40.504 81.0056 41.272C81.4216 42.04 82.5736 42.424 84.4616 42.424L84.5576 43H73.2776L73.3736 42.424C75.1336 42.424 76.1896 42.024 76.5416 41.224C76.8936 40.424 77.0696 38.232 77.0696 34.648V27.976C77.0696 25.768 76.7496 24.104 76.1096 22.984C75.5016 21.864 74.5096 21.304 73.1336 21.304C71.7576 21.304 70.6216 21.816 69.7256 22.84C68.8296 23.832 68.1576 25.096 67.7096 26.632C66.8456 29.608 66.4136 32.6 66.4136 35.608C66.4136 38.616 66.6056 40.504 66.9896 41.272C67.4056 42.04 68.5576 42.424 70.4456 42.424L70.5416 43H58.8296L58.9256 42.424C60.8456 42.424 62.0136 42.04 62.4296 41.272C62.8456 40.472 63.0536 38.376 63.0536 34.984V31.144C63.0536 26.344 62.8136 23.448 62.3336 22.456C62.1736 22.104 61.8856 21.784 61.4696 21.496C61.0856 21.208 60.6536 21.032 60.1736 20.968C59.7256 20.904 59.1016 20.872 58.3016 20.872L58.2056 20.344C60.9896 19.992 63.7256 19.816 66.4136 19.816V28.408C66.7016 26.104 67.4376 24.104 68.6216 22.408C69.8376 20.68 71.5176 19.816 73.6616 19.816C78.1736 19.816 80.4296 22.68 80.4296 28.408ZM119.854 27.496V32.344C119.854 35.896 119.966 38.232 120.19 39.352C120.414 40.44 120.958 40.984 121.822 40.984C122.366 40.984 123.086 40.76 123.982 40.312L124.222 40.792C123.966 40.984 123.63 41.224 123.214 41.512C122.798 41.768 121.95 42.12 120.67 42.568C119.39 43.016 118.158 43.24 116.974 43.24C116.654 41.896 116.494 39.752 116.494 36.808C115.79 38.792 114.862 40.408 113.71 41.656C112.59 42.872 111.022 43.48 109.006 43.48C106.99 43.48 105.39 42.952 104.206 41.896C103.054 40.808 102.478 39.336 102.478 37.48C102.478 32.328 107.15 29.736 116.494 29.704V27.976C116.494 25.672 116.158 23.912 115.486 22.696C114.814 21.48 113.566 20.872 111.742 20.872C110.718 20.872 109.886 21.128 109.246 21.64C108.606 22.152 108.174 22.712 107.95 23.32C107.406 24.984 106.59 25.816 105.502 25.816C104.446 25.816 103.918 25.224 103.918 24.04C103.918 22.824 104.718 21.816 106.318 21.016C107.918 20.216 109.854 19.816 112.126 19.816C114.398 19.816 116.254 20.472 117.694 21.784C119.134 23.064 119.854 24.968 119.854 27.496ZM106.126 37.672C106.126 38.92 106.43 39.96 107.038 40.792C107.646 41.592 108.606 41.992 109.918 41.992C111.262 41.992 112.478 41.352 113.566 40.072C114.654 38.76 115.39 37.32 115.774 35.752C116.19 34.152 116.43 32.504 116.494 30.808C112.942 30.84 110.318 31.496 108.622 32.776C106.958 34.056 106.126 35.688 106.126 37.672ZM135.086 19.816V28.408C135.374 26.104 136.174 24.104 137.486 22.408C138.798 20.68 140.542 19.816 142.718 19.816C147.614 19.816 150.062 22.376 150.062 27.496V35.08C150.062 38.408 150.27 40.472 150.686 41.272C151.134 42.04 152.286 42.424 154.142 42.424L154.238 43H142.574L142.67 42.424C144.59 42.424 145.742 42.024 146.126 41.224C146.51 40.424 146.702 38.232 146.702 34.648V27.976C146.702 25.768 146.35 24.104 145.646 22.984C144.974 21.864 143.886 21.304 142.382 21.304C140.91 21.304 139.678 21.816 138.686 22.84C137.694 23.832 136.958 25.096 136.478 26.632C135.55 29.608 135.086 32.6 135.086 35.608C135.086 38.616 135.278 40.504 135.662 41.272C136.078 42.04 137.23 42.424 139.118 42.424L139.214 43H127.502L127.598 42.424C129.518 42.424 130.686 42.04 131.102 41.272C131.518 40.472 131.726 38.376 131.726 34.984V31.144C131.726 26.344 131.486 23.448 131.006 22.456C130.846 22.104 130.558 21.784 130.142 21.496C129.758 21.208 129.326 21.032 128.846 20.968C128.398 20.904 127.774 20.872 126.974 20.872L126.878 20.344C129.662 19.992 132.398 19.816 135.086 19.816ZM167.864 43.48C165.048 43.48 162.632 42.44 160.616 40.36C158.6 38.28 157.592 35.464 157.592 31.912C157.592 28.328 158.504 25.416 160.328 23.176C162.184 20.936 164.808 19.816 168.2 19.816C170.312 19.816 172.152 20.168 173.72 20.872C175.288 21.544 176.072 22.488 176.072 23.704C176.072 24.792 175.48 25.336 174.296 25.336C173.688 25.336 173.176 25.096 172.76 24.616C172.376 24.136 172.072 23.624 171.848 23.08C171.656 22.504 171.256 21.976 170.648 21.496C170.04 21.016 169.24 20.776 168.248 20.776C165.944 20.776 164.2 21.736 163.016 23.656C161.832 25.576 161.24 28.216 161.24 31.576C161.24 34.904 161.944 37.496 163.352 39.352C164.76 41.176 166.504 42.088 168.584 42.088C171.752 42.088 174.008 40.808 175.352 38.248L176.072 38.632C174.44 41.864 171.704 43.48 167.864 43.48ZM181.937 53.08C183.537 53.08 184.865 52.456 185.921 51.208C187.009 49.992 188.113 48.008 189.233 45.256L182.081 27.208C181.025 24.52 180.065 22.792 179.201 22.024C178.369 21.256 177.361 20.872 176.177 20.872L176.081 20.296H187.985L187.889 20.872C186.769 20.872 185.985 21.048 185.537 21.4C185.121 21.752 184.913 22.296 184.913 23.032C184.913 24.504 185.665 27.128 187.169 30.904L190.865 40.216L194.609 28.696C195.345 26.392 195.713 24.648 195.713 23.464C195.713 21.736 194.593 20.872 192.353 20.872L192.257 20.296H201.281L201.185 20.872C199.873 20.872 198.945 21.304 198.401 22.168C197.889 23 196.913 25.608 195.473 29.992L191.153 43.144C189.745 47.464 188.097 50.792 186.209 53.128C184.321 55.464 182.353 56.632 180.305 56.632C179.377 56.632 178.609 56.44 178.001 56.056C177.393 55.704 177.089 55.192 177.089 54.52C177.089 53.88 177.281 53.368 177.665 52.984C178.081 52.632 178.513 52.456 178.961 52.456C179.441 52.456 179.969 52.552 180.545 52.744C181.121 52.968 181.585 53.08 181.937 53.08Z" fill="#D98600"/>
<path d="M11.84 58.2C11.84 58.0667 11.9067 58 12.04 58H13.06C13.1933 58 13.26 58.0667 13.26 58.2V71.8C13.26 71.9333 13.1933 72 13.06 72H12.04C11.9067 72 11.84 71.9333 11.84 71.8V65.66C11.84 65.6067 11.8133 65.58 11.76 65.58H5.38C5.32667 65.58 5.3 65.6067 5.3 65.66V71.8C5.3 71.9333 5.23333 72 5.1 72H4.08C3.94667 72 3.88 71.9333 3.88 71.8V58.2C3.88 58.0667 3.94667 58 4.08 58H5.1C5.23333 58 5.3 58.0667 5.3 58.2V64.26C5.3 64.3133 5.32667 64.34 5.38 64.34H11.76C11.8133 64.34 11.84 64.3133 11.84 64.26V58.2ZM26.4859 72.16C25.5393 72.16 24.7059 71.9667 23.9859 71.58C23.2659 71.1933 22.7059 70.6533 22.3059 69.96C21.9193 69.2533 21.7259 68.44 21.7259 67.52V62.48C21.7259 61.56 21.9193 60.7533 22.3059 60.06C22.7059 59.3533 23.2659 58.8067 23.9859 58.42C24.7059 58.0333 25.5393 57.84 26.4859 57.84C27.4326 57.84 28.2659 58.0333 28.9859 58.42C29.7193 58.8067 30.2793 59.3533 30.6659 60.06C31.0659 60.7533 31.2659 61.56 31.2659 62.48V67.52C31.2659 68.44 31.0659 69.2533 30.6659 69.96C30.2793 70.6533 29.7193 71.1933 28.9859 71.58C28.2659 71.9667 27.4326 72.16 26.4859 72.16ZM26.4859 70.94C27.4993 70.94 28.3126 70.6333 28.9259 70.02C29.5393 69.4067 29.8459 68.5933 29.8459 67.58V62.46C29.8459 61.4467 29.5393 60.6333 28.9259 60.02C28.3126 59.3933 27.4993 59.08 26.4859 59.08C25.4859 59.08 24.6793 59.3933 24.0659 60.02C23.4526 60.6333 23.1459 61.4467 23.1459 62.46V67.58C23.1459 68.5933 23.4526 69.4067 24.0659 70.02C24.6793 70.6333 25.4859 70.94 26.4859 70.94ZM48.0716 58C48.2049 58 48.2716 58.0667 48.2716 58.2V59.06C48.2716 59.1933 48.2049 59.26 48.0716 59.26H44.1516C44.0982 59.26 44.0716 59.2867 44.0716 59.34V71.8C44.0716 71.9333 44.0049 72 43.8716 72H42.8516C42.7182 72 42.6516 71.9333 42.6516 71.8V59.34C42.6516 59.2867 42.6249 59.26 42.5716 59.26H38.8116C38.6782 59.26 38.6116 59.1933 38.6116 59.06V58.2C38.6116 58.0667 38.6782 58 38.8116 58H48.0716ZM65.2783 59.04C65.2783 59.1733 65.2116 59.24 65.0783 59.24H57.7183C57.6649 59.24 57.6383 59.2667 57.6383 59.32V64.26C57.6383 64.3133 57.6649 64.34 57.7183 64.34H62.8783C63.0116 64.34 63.0783 64.4067 63.0783 64.54V65.38C63.0783 65.5133 63.0116 65.58 62.8783 65.58H57.7183C57.6649 65.58 57.6383 65.6067 57.6383 65.66V70.68C57.6383 70.7333 57.6649 70.76 57.7183 70.76H65.0783C65.2116 70.76 65.2783 70.8267 65.2783 70.96V71.8C65.2783 71.9333 65.2116 72 65.0783 72H56.4183C56.2849 72 56.2183 71.9333 56.2183 71.8V58.2C56.2183 58.0667 56.2849 58 56.4183 58H65.0783C65.2116 58 65.2783 58.0667 65.2783 58.2V59.04ZM73.7277 72C73.5943 72 73.5277 71.9333 73.5277 71.8V58.2C73.5277 58.0667 73.5943 58 73.7277 58H74.7477C74.881 58 74.9477 58.0667 74.9477 58.2V70.68C74.9477 70.7333 74.9743 70.76 75.0277 70.76H82.0877C82.221 70.76 82.2877 70.8267 82.2877 70.96V71.8C82.2877 71.9333 82.221 72 82.0877 72H73.7277ZM99.4987 72C99.3654 72 99.2987 71.9333 99.2987 71.8V58.2C99.2987 58.0667 99.3654 58 99.4987 58H100.519C100.652 58 100.719 58.0667 100.719 58.2V70.68C100.719 70.7333 100.745 70.76 100.799 70.76H107.859C107.992 70.76 108.059 70.8267 108.059 70.96V71.8C108.059 71.9333 107.992 72 107.859 72H99.4987ZM120.466 72.16C119.533 72.16 118.706 71.9733 117.986 71.6C117.266 71.2267 116.706 70.7067 116.306 70.04C115.906 69.36 115.706 68.5733 115.706 67.68V58.2C115.706 58.0667 115.773 58 115.906 58H116.926C117.059 58 117.126 58.0667 117.126 58.2V67.72C117.126 68.6667 117.433 69.44 118.046 70.04C118.659 70.6267 119.466 70.92 120.466 70.92C121.466 70.92 122.273 70.6267 122.886 70.04C123.499 69.44 123.806 68.6667 123.806 67.72V58.2C123.806 58.0667 123.873 58 124.006 58H125.026C125.159 58 125.226 58.0667 125.226 58.2V67.68C125.226 68.5733 125.026 69.36 124.626 70.04C124.239 70.7067 123.686 71.2267 122.966 71.6C122.246 71.9733 121.413 72.16 120.466 72.16ZM133.075 72C132.995 72 132.941 71.98 132.915 71.94C132.901 71.8867 132.915 71.8267 132.955 71.76L137.155 65.06C137.181 65.02 137.181 64.98 137.155 64.94L132.955 58.24C132.928 58.1867 132.915 58.1467 132.915 58.12C132.915 58.04 132.968 58 133.075 58H134.195C134.288 58 134.368 58.0467 134.435 58.14L137.995 63.84C138.008 63.8533 138.028 63.86 138.055 63.86C138.081 63.86 138.101 63.8533 138.115 63.84L141.655 58.14C141.721 58.0467 141.801 58 141.895 58H142.995C143.075 58 143.121 58.0267 143.135 58.08C143.161 58.12 143.155 58.1733 143.115 58.24L138.935 64.96C138.921 65 138.921 65.04 138.935 65.08L143.115 71.76C143.141 71.8133 143.155 71.8533 143.155 71.88C143.155 71.96 143.101 72 142.995 72H141.895C141.801 72 141.721 71.9533 141.655 71.86L138.115 66.18C138.101 66.1533 138.081 66.14 138.055 66.14C138.028 66.14 138.008 66.1533 137.995 66.18L134.435 71.86C134.368 71.9533 134.288 72 134.195 72H133.075ZM155.612 72.16C154.679 72.16 153.852 71.9733 153.132 71.6C152.412 71.2267 151.852 70.7067 151.452 70.04C151.052 69.36 150.852 68.5733 150.852 67.68V58.2C150.852 58.0667 150.919 58 151.052 58H152.072C152.205 58 152.272 58.0667 152.272 58.2V67.72C152.272 68.6667 152.579 69.44 153.192 70.04C153.805 70.6267 154.612 70.92 155.612 70.92C156.612 70.92 157.419 70.6267 158.032 70.04C158.645 69.44 158.952 68.6667 158.952 67.72V58.2C158.952 58.0667 159.019 58 159.152 58H160.172C160.305 58 160.372 58.0667 160.372 58.2V67.68C160.372 68.5733 160.172 69.36 159.772 70.04C159.385 70.7067 158.832 71.2267 158.112 71.6C157.392 71.9733 156.559 72.16 155.612 72.16ZM177.341 72C177.221 72 177.141 71.9533 177.101 71.86L174.161 65.66C174.147 65.62 174.121 65.6 174.081 65.6H170.681C170.627 65.6 170.601 65.6267 170.601 65.68V71.8C170.601 71.9333 170.534 72 170.401 72H169.381C169.247 72 169.181 71.9333 169.181 71.8V58.2C169.181 58.0667 169.247 58 169.381 58H174.561C175.707 58 176.634 58.36 177.341 59.08C178.047 59.7867 178.401 60.7133 178.401 61.86C178.401 62.7933 178.147 63.5867 177.641 64.24C177.134 64.8933 176.447 65.3133 175.581 65.5C175.527 65.5267 175.514 65.56 175.541 65.6L178.541 71.76C178.554 71.7867 178.561 71.82 178.561 71.86C178.561 71.9533 178.507 72 178.401 72H177.341ZM170.681 59.24C170.627 59.24 170.601 59.2667 170.601 59.32V64.38C170.601 64.4333 170.627 64.46 170.681 64.46H174.401C175.174 64.46 175.801 64.22 176.281 63.74C176.761 63.26 177.001 62.6333 177.001 61.86C177.001 61.0867 176.761 60.46 176.281 59.98C175.801 59.4867 175.174 59.24 174.401 59.24H170.681ZM189.672 71.98C189.539 71.98 189.472 71.9133 189.472 71.78V65.86C189.472 65.8067 189.466 65.7733 189.452 65.76L185.292 58.24C185.266 58.1867 185.252 58.1467 185.252 58.12C185.252 58.04 185.312 58 185.432 58H186.512C186.632 58 186.712 58.0467 186.752 58.14L190.112 64.24C190.126 64.2533 190.146 64.26 190.172 64.26C190.199 64.26 190.219 64.2533 190.232 64.24L193.612 58.14C193.666 58.0467 193.746 58 193.852 58H194.932C195.012 58 195.066 58.0267 195.092 58.08C195.119 58.12 195.112 58.1733 195.072 58.24L190.912 65.76C190.899 65.7733 190.892 65.8067 190.892 65.86V71.78C190.892 71.9133 190.826 71.98 190.692 71.98H189.672Z" fill="white"/>
</svg>
